<?xml version="1.0" encoding="UTF-8"?>
<svg xmlns="http://www.w3.org/2000/svg" viewBox="0 0 647.1 969.4">
  <path fill="currentColor" d="M647.1,323.5c0,278.5-220.4,489.3-297.4,554.5-15.1,12.8-37.2,12.8-52.3,0C220.4,812.9,0,602,0,323.5S144.9,0,323.5,0s323.5,144.9,323.5,323.5Z"/>
  <circle fill="#fff" cx="323.5" cy="323.5" r="207.4"/>
  <path fill="currentColor" d="M532.7,895.6c0,40.8-93.6,73.8-209.2,73.8s-209.2-33.1-209.2-73.8,41.4-50.8,103-63.6c26.4,26.9,49.8,47.8,66.5,61.9,11.1,9.4,25.1,14.5,39.6,14.5s28.6-5.2,39.6-14.5c16.7-14.2,40.1-35.1,66.5-61.9,61.7,12.8,103,36.5,103,63.6Z"/>
</svg>
