<?xml version="1.0" encoding="UTF-8"?>
<svg id="_x30_" xmlns="http://www.w3.org/2000/svg" version="1.1" viewBox="0 0 400 400">
  <!-- Generator: Adobe Illustrator 29.0.0, SVG Export Plug-In . SVG Version: 2.1.0 Build 186)  -->
  <g id="LINE">
    <path d="M200,39.64c22.14,22.14,22.14,58.05,0,80.19l-40.09,40.09c-22.14,22.14-22.14,58.03,0,80.17,7.13,7.13,16.04,12.24,25.82,14.79-15.27,12.69-25.62,30.31-29.25,49.84-13.71-5.71-26.17-14.04-36.66-24.53-44.28-44.28-44.28-116.08,0-160.36l80.18-80.18Z"/>
  </g>
  <g id="CIRCLE">
    <circle cx="200" cy="200" r="28.35"/>
  </g>
  <g id="ARC">
    <path d="M280.18,119.82c44.28,44.28,44.28,116.08,0,160.36l-80.18,80.18c-22.14-22.14-22.14-58.05,0-80.19l40.09-40.09c22.14-22.14,22.14-58.03,0-80.17-7.13-7.13-16.04-12.24-25.82-14.79,15.27-12.69,25.62-30.31,29.25-49.84,13.71,5.71,26.17,14.04,36.66,24.53Z"/>
  </g>
</svg>